<svg width="18" height="18" viewBox="0 0 18 18" fill="none" xmlns="http://www.w3.org/2000/svg">
<path d="M14.9261 7.8514H10.2336C9.80693 7.8514 9.39772 7.68189 9.096 7.38018C8.79428 7.07846 8.62478 6.66924 8.62478 6.24255V1.55009C8.62478 1.51453 8.61065 1.48043 8.58551 1.45528C8.56037 1.43014 8.52627 1.41602 8.49071 1.41602H5.40709C4.83817 1.41602 4.29255 1.64202 3.89026 2.04431C3.48797 2.4466 3.26196 2.99222 3.26196 3.56114V14.2868C3.26196 14.8557 3.48797 15.4013 3.89026 15.8036C4.29255 16.2059 4.83817 16.4319 5.40709 16.4319H12.915C13.484 16.4319 14.0296 16.2059 14.4319 15.8036C14.8342 15.4013 15.0602 14.8557 15.0602 14.2868V7.98547C15.0602 7.94991 15.046 7.91581 15.0209 7.89066C14.9957 7.86552 14.9616 7.8514 14.9261 7.8514Z" fill="#F9FAFF"/>
<path d="M14.6318 6.66535L9.81168 1.84518C9.80231 1.83586 9.79039 1.82952 9.77742 1.82696C9.76446 1.82439 9.75102 1.82572 9.73881 1.83077C9.72659 1.83582 9.71614 1.84437 9.70877 1.85534C9.7014 1.86631 9.69744 1.87922 9.69739 1.89244V6.24336C9.69739 6.38559 9.75389 6.52199 9.85446 6.62257C9.95503 6.72314 10.0914 6.77964 10.2337 6.77964H14.5846C14.5978 6.77958 14.6107 6.77562 14.6217 6.76825C14.6327 6.76088 14.6412 6.75043 14.6463 6.73822C14.6513 6.72601 14.6526 6.71257 14.6501 6.6996C14.6475 6.68664 14.6412 6.67472 14.6318 6.66535Z" fill="#F9FAFF"/>
</svg>
