<svg width="13" height="20" viewBox="0 0 13 20" fill="none" xmlns="http://www.w3.org/2000/svg">
<path d="M9.7318 12.1082C9.53371 12.3918 9.317 12.6619 9.0831 12.9168C9.0844 12.9467 9.1 12.9714 9.1 13V15.6C9.1 16.3189 8.5189 16.9 7.8 16.9H5.2C4.4811 16.9 3.9 16.3189 3.9 15.6V13C3.9 12.9714 3.9156 12.9467 3.9169 12.9181C3.683 12.6632 3.46629 12.3931 3.2682 12.1095C1.3247 10.985 0 8.9076 0 6.5C0 2.9094 2.9094 0 6.5 0C10.0906 0 13 2.9094 13 6.5C13 8.9076 11.6753 10.985 9.7318 12.1082ZM5.85 18.2H7.15C7.32239 18.2 7.48772 18.2685 7.60962 18.3904C7.73152 18.5123 7.8 18.6776 7.8 18.85C7.8 19.0224 7.73152 19.1877 7.60962 19.3096C7.48772 19.4315 7.32239 19.5 7.15 19.5H5.85C5.67761 19.5 5.51228 19.4315 5.39038 19.3096C5.26848 19.1877 5.2 19.0224 5.2 18.85C5.2 18.6776 5.26848 18.5123 5.39038 18.3904C5.51228 18.2685 5.67761 18.2 5.85 18.2Z" fill="#F9FAFF"/>
</svg>
