<svg width="20" height="21" viewBox="0 0 20 21" fill="none" xmlns="http://www.w3.org/2000/svg">
<path d="M18.7715 10.7383C18.8229 11.1289 18.8525 11.527 18.8525 11.9316C18.8525 16.9401 14.7926 21 9.78418 21C4.77585 20.9999 0.71582 16.94 0.71582 11.9316C0.715828 11.527 0.745499 11.1289 0.796875 10.7383H18.7715ZM9.78418 2.86328C11.8813 2.86328 13.8105 3.57727 15.3467 4.77246H4.22168C5.75781 3.5772 7.68708 2.86332 9.78418 2.86328Z" fill="#F9FAFF"/>
<rect y="7.63623" width="19.3303" height="0.954582" rx="0.477291" fill="#F9FAFF"/>
<path d="M1.67041 6.3394C1.67041 2.83825 4.50866 0 8.00981 0H11.3203C14.8214 0 17.6597 2.83825 17.6597 6.3394C17.6597 6.52866 17.5062 6.68207 17.317 6.68207H2.01308C1.82383 6.68207 1.67041 6.52866 1.67041 6.3394Z" fill="#F9FAFF"/>
<path d="M16.9441 10.5V12.1699C16.9441 13.8833 15.5549 15.2724 13.8416 15.2725H5.48901C3.77563 15.2725 2.38647 13.8833 2.38647 12.1699V10.5H16.9441Z" fill="#1A1F37"/>
<rect x="5.48889" y="10.9771" width="2.5993" height="2.99919" rx="1.19966" stroke="#F9FAFF" stroke-width="0.599831"/>
<rect x="11.4291" y="10.9771" width="2.5993" height="2.99919" rx="1.19966" stroke="#F9FAFF" stroke-width="0.599831"/>
</svg>
