<svg width="1227" height="134" viewBox="0 0 1227 134" fill="none" xmlns="http://www.w3.org/2000/svg">
<path d="M294.681 113.425L322.858 19.6733H354.258L382.434 113.425H360.706L352.259 83.1199L363.607 91.6311H317.377L318.538 75.3825H359.094L352.195 82.862L343.684 52.3638L338.977 33.2137H337.945L333.303 52.3638L316.41 113.425H294.681Z" fill="white"/>
<path d="M391.704 113.425V19.6733H412.401V113.425H391.704Z" fill="white"/>
<path d="M467.589 113.425L444.184 19.6733H466.106L476.1 71.1915L479.839 97.2407H480.226L483.643 71.1915L492.412 19.6733H519.751L528.584 71.1915L532.001 97.2407H532.324L536.257 71.1915L546.38 19.6733H568.302L544.574 113.425H518.719L509.628 62.6158L506.275 38.3075H505.888L502.535 62.6158L493.508 113.425H467.589Z" fill="white"/>
<path d="M654.627 113.425V43.0789H672.551L674.228 70.6111L673.067 66.4201C673.454 62.7233 674.163 59.3704 675.195 56.3614C676.227 53.3095 677.559 50.6873 679.193 48.4951C680.826 46.3028 682.782 44.6049 685.06 43.4013C687.381 42.1977 690.025 41.5959 692.991 41.5959C693.85 41.5959 694.71 41.6389 695.57 41.7248C696.472 41.8108 697.268 41.9613 697.955 42.1762V63.0027C696.494 62.6158 695.075 62.3579 693.7 62.229C692.367 62.057 691.035 61.971 689.702 61.971C687.338 61.971 685.189 62.186 683.255 62.6158C681.363 63.0457 679.708 63.712 678.29 64.6147C676.871 65.4744 675.689 66.592 674.744 67.9675V113.425H654.627Z" fill="white"/>
<path d="M749.941 113.425L725.827 75.0602L743.622 72.61L750.586 80.6698L774.442 113.425H749.941ZM707.709 113.425V12.7741H727.245V63.9699L726.084 74.8667V75.3825L727.245 86.6662V113.425H707.709ZM743.622 77.1879L725.827 75.0602L736.143 59.9722L747.297 43.0789H772.121L750.263 69.4505L743.622 77.1879Z" fill="white"/>
<path d="M820.796 114.263C817.314 114.263 814.263 113.661 811.64 112.458C809.061 111.254 806.977 109.642 805.386 107.622C803.796 105.601 802.743 103.388 802.227 100.98L800.228 93.7589L803.065 90.1481C803.538 91.7815 804.269 93.2001 805.257 94.4036C806.289 95.5643 807.6 96.467 809.19 97.1117C810.781 97.7135 812.651 98.0144 814.8 98.0144C819.055 98.0144 822.365 96.3595 824.729 93.0496C827.093 89.7397 828.276 84.6674 828.276 77.8327C828.276 71.2989 827.136 66.4201 824.858 63.1961C822.58 59.9292 819.27 58.2958 814.929 58.2958C812.823 58.2958 810.91 58.5967 809.19 59.1985C807.471 59.7573 806.074 60.4665 804.999 61.3263C803.968 62.186 803.323 63.0887 803.065 64.0344L802.227 63.5185L803.13 59.1985C803.946 55.4157 805.15 52.2348 806.74 49.6557C808.374 47.0336 810.48 45.0562 813.059 43.7237C815.638 42.3911 818.711 41.7248 822.279 41.7248C827.738 41.7248 832.402 43.2079 836.271 46.1739C840.139 49.1399 843.105 53.331 845.169 58.7471C847.275 64.1203 848.328 70.4607 848.328 77.7682C848.328 83.5713 847.662 88.7296 846.329 93.243C844.997 97.7565 843.105 101.582 840.655 104.72C838.248 107.815 835.347 110.179 831.951 111.813C828.598 113.446 824.88 114.263 820.796 114.263ZM783.142 113.425V13.0965H803.13V93.1786L803.903 96.7249L802.42 101.367L801.453 113.425H783.142Z" fill="white"/>
<path d="M890.864 114.392C883.728 114.392 877.646 112.973 872.617 110.136C867.587 107.299 863.74 103.194 861.075 97.821C858.41 92.4048 857.078 85.871 857.078 78.2196C857.078 70.3102 858.496 63.6475 861.333 58.2313C864.17 52.7721 868.168 48.6455 873.326 45.8515C878.484 43.0574 884.523 41.6604 891.444 41.6604C898.15 41.6604 903.781 42.9284 908.337 45.4646C912.936 48.0007 916.418 51.7405 918.782 56.6838C921.146 61.6272 922.328 67.7096 922.328 74.9312C922.328 75.8339 922.286 76.887 922.2 78.0906C922.157 79.2512 922.092 80.5838 922.006 82.0883H876.743C877.216 87.9343 878.635 92.2114 880.999 94.9195C883.363 97.5846 886.673 98.9171 890.928 98.9171C894.453 98.9171 897.118 98.1434 898.923 96.5959C900.772 95.0484 901.868 93.0066 902.212 90.4705H921.426C921.039 95.3278 919.556 99.5619 916.977 103.173C914.441 106.741 910.959 109.513 906.532 111.49C902.104 113.425 896.882 114.392 890.864 114.392ZM884.932 70.8046H903.05C902.878 66.2911 901.782 62.9167 899.762 60.6815C897.784 58.4462 894.732 57.3286 890.606 57.3286C885.749 57.3286 882.202 59.0695 879.967 62.5514C877.732 65.9902 876.593 70.8905 876.55 77.2524C876.894 74.8022 877.732 73.1258 879.064 72.2231C880.397 71.2774 882.353 70.8046 884.932 70.8046Z" fill="white"/>
<path d="M934.573 113.425V43.0789H952.498L954.174 69.5795L953.4 64.2278C953.916 60.3591 954.926 56.7053 956.431 53.2665C957.935 49.7846 960.171 46.9691 963.136 44.8198C966.145 42.6705 970.121 41.5959 975.065 41.5959C981.469 41.5959 986.606 43.6807 990.475 47.8503C994.386 51.9769 996.342 58.2958 996.342 66.8069V113.425H976.29V74.2864C976.29 69.8159 975.903 66.4201 975.129 64.0988C974.355 61.7346 973.259 60.1227 971.841 59.263C970.422 58.4033 968.746 57.9734 966.812 57.9734C964.061 57.9734 961.632 58.8546 959.526 60.617C957.419 62.3364 955.808 64.3782 954.69 66.7424V113.425H934.573Z" fill="white"/>
<path d="M1042.18 114.65C1034.78 114.65 1028.6 113.124 1023.61 110.072C1018.67 106.977 1014.93 102.678 1012.39 97.1762C1009.9 91.6311 1008.65 85.2047 1008.65 77.8972C1008.65 70.4177 1009.94 63.9699 1012.52 58.5537C1015.14 53.1375 1018.92 48.9894 1023.87 46.1094C1028.85 43.1864 1034.85 41.7248 1041.86 41.7248C1048.73 41.7248 1054.43 42.907 1058.94 45.2712C1063.46 47.6354 1066.79 50.8808 1068.94 55.0074C1071.09 59.091 1072.03 63.7335 1071.77 68.9347H1052.37C1052.28 66.9574 1052 65.2594 1051.53 63.8409C1051.05 62.3794 1050.37 61.1973 1049.46 60.2946C1048.6 59.3489 1047.53 58.6612 1046.24 58.2313C1044.99 57.7585 1043.53 57.522 1041.86 57.522C1037.34 57.522 1033.99 59.177 1031.8 62.4869C1029.61 65.7538 1028.51 70.7831 1028.51 77.5748C1028.51 84.9683 1029.73 90.277 1032.18 93.501C1034.63 96.6819 1038.09 98.3798 1042.57 98.5947C1044.33 98.6807 1046 98.4013 1047.59 97.7565C1049.18 97.1117 1050.47 96.0371 1051.46 94.5326C1052.45 92.9851 1052.92 90.9648 1052.88 88.4716H1072.03C1072.16 93.6729 1071.06 98.2509 1068.74 102.206C1066.42 106.117 1063 109.169 1058.49 111.361C1054.02 113.554 1048.58 114.65 1042.18 114.65Z" fill="white"/>
<path d="M1083.36 113.425V12.7741H1102.9V43.0789L1101.8 63.1317L1102.45 68.8057L1101.74 64.2278C1102.25 60.3591 1103.31 56.7053 1104.9 53.2665C1106.49 49.7846 1108.81 46.9691 1111.86 44.8198C1114.96 42.6705 1119 41.5959 1123.98 41.5959C1130.35 41.5959 1135.46 43.6807 1139.33 47.8503C1143.24 51.9769 1145.2 58.2958 1145.2 66.8069V113.425H1125.08V74.2864C1125.08 68.3974 1124.35 64.2063 1122.89 61.7131C1121.43 59.22 1118.95 57.9734 1115.47 57.9734C1112.98 57.9734 1110.68 58.8116 1108.57 60.488C1106.47 62.1215 1104.77 64.2708 1103.48 66.9359V113.425H1083.36Z" fill="white"/>
<path d="M1167.24 43.9866V18.0464C1167.24 17.0544 1167.42 16.3353 1167.78 15.8889C1168.15 15.4425 1168.7 15.1614 1169.45 15.0457H1158.34V7.92828H1183.98V15.0457H1175.13V43.9866H1167.24Z" fill="white"/>
<path d="M1188.34 43.9866V7.92828H1201.44L1206 27.9166L1207.26 34.0916H1207.36L1208.65 27.9166L1213.14 7.92828H1226.28V43.9866H1218.57V25.759L1219.34 14.1033H1219.09L1215.74 25.6846L1210.54 43.9866H1204.16L1195.53 14.1033H1195.29L1196.05 25.759V43.9866H1188.34Z" fill="white"/>
<path d="M616.259 103.36C610.53 103.019 604.79 101.373 599.482 98.3086C596.841 96.7837 594.451 94.9908 592.326 92.9827C590.479 91.5351 588.959 89.7909 587.799 87.8579C585.756 85.0756 584.114 82.0437 582.903 78.8561C582.496 77.7971 582.139 76.7181 581.832 75.6238C581.732 75.2731 581.637 74.918 581.549 74.5628C581.543 74.5382 581.537 74.513 581.53 74.4895C581.486 74.3178 581.444 74.1456 581.406 73.9743C581.236 73.2624 581.089 72.5453 580.965 71.8261C580.958 71.7867 580.952 71.7485 580.945 71.7108C580.913 71.5369 580.885 71.3638 580.859 71.1902C580.798 70.8153 580.744 70.4414 580.697 70.0655C580.672 69.8849 580.651 69.7051 580.632 69.5248C580.629 69.4927 580.625 69.4618 580.621 69.4291C580.601 69.2635 580.584 69.0981 580.57 68.9347C580.55 68.7467 580.534 68.5589 580.517 68.3693C580.501 68.1804 580.488 67.9898 580.475 67.7999C580.461 67.6105 580.45 67.4213 580.441 67.2315C580.43 67.0423 580.421 66.8514 580.415 66.6619C580.407 66.4728 580.401 66.2821 580.397 66.0927C580.388 65.7109 580.385 65.3312 580.388 64.9507C580.39 64.3791 580.408 63.8074 580.438 63.2352C580.448 63.0442 580.459 62.8539 580.471 62.6632C580.483 62.4889 580.496 62.3165 580.51 62.1447C580.523 61.9906 580.537 61.8371 580.551 61.6837C580.559 61.5849 580.569 61.4856 580.579 61.3874C580.594 61.2412 580.61 61.0931 580.626 60.9457C580.668 60.5646 580.718 60.1833 580.772 59.8035C580.826 59.422 580.887 59.0425 580.954 58.6623C581.02 58.2814 581.093 57.9027 581.171 57.5232C581.214 57.3236 581.256 57.1228 581.301 56.9233C581.335 56.7693 581.37 56.6141 581.408 56.4592C581.42 56.4067 581.433 56.3549 581.446 56.303C581.471 56.194 581.498 56.0844 581.526 55.9774C581.544 55.9022 581.563 55.8265 581.583 55.7526C581.614 55.6303 581.646 55.5087 581.679 55.3859C581.698 55.312 581.718 55.2382 581.74 55.1638C581.782 55.0067 581.826 54.8509 581.871 54.694C581.979 54.3192 582.093 53.9448 582.213 53.5707C582.273 53.3846 582.335 53.1979 582.398 53.012C583.193 50.6732 584.225 48.3778 585.507 46.1576C585.988 45.3246 586.496 44.5162 587.028 43.7342C580.525 46.9589 574.868 52.0724 570.966 58.8313C560.425 77.0887 566.683 100.436 584.943 110.979C587.278 112.327 589.696 113.4 592.161 114.209C593.891 114.778 595.644 115.216 597.406 115.525C597.523 115.547 597.641 115.567 597.759 115.585C597.927 115.614 598.092 115.641 598.26 115.666C598.434 115.693 598.607 115.719 598.781 115.741C598.816 115.747 598.85 115.751 598.885 115.756C611.266 117.435 623.943 112.924 632.456 103.416C633.398 102.236 634.286 100.982 635.12 99.6531C629.278 102.459 622.775 103.752 616.259 103.36Z" fill="url(#paint0_linear_332_990)"/>
<path d="M635.23 99.9999C629.376 102.814 622.86 104.115 616.335 103.726C610.597 103.388 604.849 101.742 599.533 98.6723C596.888 97.1455 594.495 95.3498 592.368 93.3383C593.066 93.8847 593.809 94.3888 594.599 94.8446C603.663 100.078 615.26 96.9631 620.499 87.887C622.354 84.6745 623.163 81.1456 623.034 77.6964C622.931 74.9759 622.245 72.3054 621.027 69.8757C619.424 66.679 616.902 63.8997 613.574 61.9784C604.509 56.7445 592.912 59.8593 587.673 68.9342C584.1 75.1232 584.406 82.4871 587.836 88.2043C580.566 78.2902 578.388 65.2278 582.446 53.2846C583.242 50.9399 584.278 48.6386 585.563 46.4125C586.045 45.5773 586.554 44.7668 587.088 43.9827C598.176 38.4741 611.719 38.4397 623.235 45.0887C632.534 50.4574 638.721 59.1456 641.166 68.7973C642.326 73.3726 642.645 78.1638 642.055 82.9212C641.272 86.4161 640.227 89.7343 638.913 92.88C637.828 95.4445 636.601 97.8204 635.23 99.9999Z" fill="url(#paint1_linear_332_990)"/>
<path d="M638.887 92.6504C637.799 95.2157 636.57 97.5933 635.199 99.7753C635.196 99.78 635.192 99.784 635.189 99.7887C634.352 101.122 633.461 102.381 632.517 103.567C631.432 104.933 630.274 106.202 629.045 107.371C621.134 114.872 611.104 117.758 598.967 116.061C598.932 116.056 598.895 116.051 598.86 116.046C598.686 116.024 598.513 115.999 598.34 115.973C598.173 115.948 598.007 115.922 597.84 115.894C597.723 115.875 597.605 115.856 597.488 115.835C597.438 115.826 597.388 115.817 597.338 115.808C596.372 115.638 596.497 114.128 597.468 113.988C601.307 113.4 604.301 112.615 606.45 111.632C610.238 109.927 613.55 107.239 616.347 103.575C616.348 103.574 616.35 103.572 616.351 103.571C616.353 103.57 616.354 103.569 616.355 103.568C617.623 101.911 618.785 100.049 619.838 97.993C620.666 96.3928 621.345 94.8025 621.894 93.1853C623.71 87.9208 624.103 82.7201 623.11 77.5145C623.083 77.3659 622.923 77.2827 622.784 77.3433L616.404 80.136C615.574 80.4993 614.777 79.564 615.268 78.8023L623.752 65.6383L628.799 57.8576C629.115 57.3713 629.797 57.2972 630.209 57.7044L640.495 67.8595L646.557 73.8055C647.226 74.4615 646.594 75.5795 645.687 75.3442L644.397 75.0095C643.858 74.8696 643.321 75.2398 643.251 75.7924C642.953 78.16 642.553 80.4551 642.049 82.6808C641.258 86.1785 640.206 89.5003 638.887 92.6504Z" fill="url(#paint2_linear_332_990)"/>
<path d="M8.72456 113V21.076H40.7778C47.7743 21.076 53.5275 22.0243 58.0373 23.921C62.5892 25.8176 65.961 28.4518 68.1527 31.8237C70.3865 35.1955 71.5035 39.1152 71.5035 43.5828C71.5035 49.2728 69.8386 53.8247 66.509 57.2387C63.2214 60.6526 58.9435 62.5914 53.675 63.0551C58.3113 63.5187 62.1888 64.6356 65.3078 66.4058C68.4688 68.176 70.8502 70.5995 72.4518 73.6763C74.0955 76.7109 74.9174 80.462 74.9174 84.9297C74.9174 90.8303 73.5898 95.8881 70.9345 100.103C68.2792 104.275 64.4227 107.479 59.3649 109.712C54.3494 111.904 48.259 113 41.0939 113H8.72456ZM28.4497 96.3095H39.956C44.9715 96.3095 48.5541 95.4034 50.7036 93.591C52.8531 91.7787 53.9279 88.7019 53.9279 84.3607C53.9279 80.9889 53.3378 78.4811 52.1577 76.8373C51.0197 75.1936 49.3549 74.0977 47.1632 73.5498C44.9715 73.0019 42.2951 72.7279 39.1341 72.7279H28.4497V96.3095ZM28.4497 58.4399H39.387C42.0423 58.4399 44.2339 58.0184 45.962 57.1755C47.7322 56.3325 49.0388 55.0892 49.8817 53.4454C50.7668 51.8016 51.2094 49.7785 51.2094 47.3761C51.2094 43.9622 50.1135 41.4965 47.9219 39.9792C45.7302 38.4198 42.7166 37.64 38.8812 37.64H28.4497V58.4399ZM117.192 113.948C110.49 113.948 104.674 112.579 99.7427 109.839C94.8114 107.099 90.976 103.074 88.2364 97.7636C85.5389 92.4109 84.1902 85.8569 84.1902 78.1018C84.1902 70.7681 85.6232 64.4459 88.4893 59.1353C91.3553 53.8247 95.2961 49.7575 100.312 46.9336C105.327 44.0675 111.038 42.6345 117.445 42.6345C124.357 42.6345 130.258 44.0675 135.147 46.9336C140.078 49.7575 143.85 53.8247 146.463 59.1353C149.119 64.4459 150.446 70.7681 150.446 78.1018C150.446 85.8569 148.992 92.4109 146.084 97.7636C143.176 103.074 139.214 107.099 134.198 109.839C129.183 112.579 123.514 113.948 117.192 113.948ZM117.445 97.7004C121.28 97.7004 124.483 96.2885 127.054 93.4646C129.625 90.5985 130.911 85.4776 130.911 78.1018C130.911 71.2317 129.562 66.3215 126.865 63.3712C124.209 60.3787 121.006 58.8824 117.255 58.8824C113.42 58.8824 110.216 60.3787 107.645 63.3712C105.074 66.3215 103.789 71.2317 103.789 78.1018C103.789 85.1826 105.138 90.2192 107.835 93.2117C110.532 96.2042 113.736 97.7004 117.445 97.7004ZM162.884 113V14.2481H182.609V113H162.884ZM221.251 113.822C215.856 113.822 211.22 112.368 207.343 109.46C203.465 106.509 200.494 102.358 198.428 97.005C196.405 91.6522 195.394 85.3722 195.394 78.165C195.394 70.7049 196.532 64.3406 198.808 59.0721C201.084 53.7615 204.266 49.7153 208.354 46.9336C212.443 44.1097 217.163 42.6977 222.516 42.6977C225.972 42.6977 228.943 43.2878 231.43 44.4679C233.959 45.6481 236.003 47.2286 237.562 49.2096C239.122 51.1905 240.155 53.3611 240.66 55.7214L242.936 62.17L239.838 66.6587C239.417 65.0571 238.7 63.6873 237.689 62.5493C236.72 61.3691 235.455 60.463 233.896 59.8308C232.378 59.1985 230.566 58.8824 228.459 58.8824C224.202 58.8824 220.893 60.5051 218.533 63.7505C216.215 66.9537 215.056 71.885 215.056 78.5443C215.056 84.9086 216.173 89.6924 218.406 92.8956C220.682 96.0988 223.97 97.7004 228.269 97.7004C230.334 97.7004 232.189 97.4054 233.832 96.8153C235.518 96.1831 236.888 95.4244 237.942 94.5393C238.996 93.6121 239.628 92.7059 239.838 91.8208L240.597 92.6427L239.838 96.8153C239.248 99.3442 238.448 101.662 237.436 103.77C236.425 105.835 235.181 107.626 233.706 109.143C232.231 110.619 230.461 111.778 228.395 112.621C226.372 113.421 223.991 113.822 221.251 113.822ZM239.902 113L239.838 14.6274H259.437V113H239.902Z" fill="white"/>
<defs>
<linearGradient id="paint0_linear_332_990" x1="274.296" y1="23.5854" x2="334.515" y2="265.569" gradientUnits="userSpaceOnUse">
<stop stop-color="#003BDF"/>
<stop offset="0.2" stop-color="#003BDF"/>
<stop offset="0.485" stop-color="#06E5EC"/>
<stop offset="0.78" stop-color="#589CEF"/>
<stop offset="0.955" stop-color="#003BDF"/>
</linearGradient>
<linearGradient id="paint1_linear_332_990" x1="1224.2" y1="76.3205" x2="949.06" y2="500.074" gradientUnits="userSpaceOnUse">
<stop stop-color="#001654"/>
<stop offset="0.43" stop-color="#003BDF"/>
<stop offset="0.93" stop-color="#06E5EC"/>
</linearGradient>
<linearGradient id="paint2_linear_332_990" x1="639.476" y1="62.7273" x2="628.764" y2="129.289" gradientUnits="userSpaceOnUse">
<stop stop-color="#06E5EC"/>
<stop offset="0.34" stop-color="#10D1E7"/>
<stop offset="0.7" stop-color="#0092DB"/>
<stop offset="1" stop-color="#006BE6"/>
</linearGradient>
</defs>
</svg>
