<svg width="1227" height="134" viewBox="0 0 1227 134" fill="none" xmlns="http://www.w3.org/2000/svg">
<path d="M295.161 113.425L323.337 19.6733H354.737L382.914 113.425H361.185L352.739 83.1199L364.087 91.6311H317.857L319.017 75.3825H359.573L352.674 82.862L344.163 52.3638L339.456 33.2137H338.425L333.782 52.3638L316.889 113.425H295.161Z" fill="#19306F"/>
<path d="M392.184 113.425V19.6733H412.881V113.425H392.184Z" fill="#19306F"/>
<path d="M468.068 113.425L444.663 19.6733H466.585L476.579 71.1915L480.319 97.2407H480.706L484.123 71.1915L492.892 19.6733H520.23L529.064 71.1915L532.481 97.2407H532.803L536.736 71.1915L546.859 19.6733H568.782L545.054 113.425H519.199L510.107 62.6158L506.755 38.3075H506.368L503.015 62.6158L493.988 113.425H468.068Z" fill="#19306F"/>
<path d="M655.106 113.425V43.0789H673.031L674.707 70.6111L673.547 66.4201C673.934 62.7233 674.643 59.3704 675.675 56.3614C676.706 53.3095 678.039 50.6873 679.672 48.4951C681.306 46.3028 683.261 44.6049 685.54 43.4013C687.861 42.1977 690.504 41.5959 693.47 41.5959C694.33 41.5959 695.19 41.6389 696.049 41.7248C696.952 41.8108 697.747 41.9613 698.435 42.1762V63.0027C696.973 62.6158 695.555 62.3579 694.179 62.229C692.847 62.057 691.514 61.971 690.182 61.971C687.818 61.971 685.668 62.186 683.734 62.6158C681.843 63.0457 680.188 63.712 678.769 64.6147C677.351 65.4744 676.169 66.592 675.223 67.9675V113.425H655.106Z" fill="#19306F"/>
<path d="M750.421 113.425L726.306 75.0602L744.102 72.61L751.065 80.6698L774.922 113.425H750.421ZM708.188 113.425V12.7741H727.725V63.9699L726.564 74.8667V75.3825L727.725 86.6662V113.425H708.188ZM744.102 77.1879L726.306 75.0602L736.623 59.9722L747.777 43.0789H772.601L750.743 69.4505L744.102 77.1879Z" fill="#19306F"/>
<path d="M821.276 114.263C817.794 114.263 814.742 113.661 812.12 112.458C809.541 111.254 807.456 109.642 805.866 107.622C804.275 105.601 803.222 103.388 802.706 100.98L800.708 93.7589L803.545 90.1481C804.017 91.7815 804.748 93.2001 805.737 94.4036C806.769 95.5643 808.08 96.467 809.67 97.1117C811.26 97.7135 813.13 98.0144 815.28 98.0144C819.535 98.0144 822.845 96.3595 825.209 93.0496C827.573 89.7397 828.755 84.6674 828.755 77.8327C828.755 71.2989 827.616 66.4201 825.338 63.1961C823.06 59.9292 819.75 58.2958 815.408 58.2958C813.302 58.2958 811.389 58.5967 809.67 59.1985C807.951 59.7573 806.554 60.4665 805.479 61.3263C804.447 62.186 803.803 63.0887 803.545 64.0344L802.706 63.5185L803.609 59.1985C804.426 55.4157 805.629 52.2348 807.22 49.6557C808.853 47.0336 810.96 45.0562 813.539 43.7237C816.118 42.3911 819.191 41.7248 822.759 41.7248C828.218 41.7248 832.882 43.2079 836.75 46.1739C840.619 49.1399 843.585 53.331 845.648 58.7471C847.754 64.1203 848.808 70.4607 848.808 77.7682C848.808 83.5713 848.141 88.7296 846.809 93.243C845.476 97.7565 843.585 101.582 841.135 104.72C838.728 107.815 835.826 110.179 832.43 111.813C829.078 113.446 825.359 114.263 821.276 114.263ZM783.621 113.425V13.0965H803.609V93.1786L804.383 96.7249L802.9 101.367L801.933 113.425H783.621Z" fill="#19306F"/>
<path d="M891.343 114.392C884.208 114.392 878.126 112.973 873.096 110.136C868.067 107.299 864.22 103.194 861.555 97.821C858.89 92.4048 857.557 85.871 857.557 78.2196C857.557 70.3102 858.976 63.6475 861.813 58.2313C864.65 52.7721 868.647 48.6455 873.806 45.8515C878.964 43.0574 885.003 41.6604 891.924 41.6604C898.629 41.6604 904.26 42.9284 908.817 45.4646C913.416 48.0007 916.898 51.7405 919.262 56.6838C921.626 61.6272 922.808 67.7096 922.808 74.9312C922.808 75.8339 922.765 76.887 922.679 78.0906C922.636 79.2512 922.572 80.5838 922.486 82.0883H877.223C877.696 87.9343 879.114 92.2114 881.478 94.9195C883.842 97.5846 887.152 98.9171 891.408 98.9171C894.933 98.9171 897.598 98.1434 899.403 96.5959C901.251 95.0484 902.347 93.0066 902.691 90.4705H921.905C921.519 95.3278 920.036 99.5619 917.457 103.173C914.92 106.741 911.439 109.513 907.011 111.49C902.584 113.425 897.361 114.392 891.343 114.392ZM885.411 70.8046H903.529C903.358 66.2911 902.261 62.9167 900.241 60.6815C898.264 58.4462 895.212 57.3286 891.085 57.3286C886.228 57.3286 882.682 59.0695 880.447 62.5514C878.211 65.9902 877.072 70.8905 877.029 77.2524C877.373 74.8022 878.211 73.1258 879.544 72.2231C880.877 71.2774 882.832 70.8046 885.411 70.8046Z" fill="#19306F"/>
<path d="M935.053 113.425V43.0789H952.977L954.654 69.5795L953.88 64.2278C954.396 60.3591 955.406 56.7053 956.91 53.2665C958.415 49.7846 960.65 46.9691 963.616 44.8198C966.625 42.6705 970.601 41.5959 975.544 41.5959C981.949 41.5959 987.086 43.6807 990.954 47.8503C994.866 51.9769 996.822 58.2958 996.822 66.8069V113.425H976.769V74.2864C976.769 69.8159 976.383 66.4201 975.609 64.0988C974.835 61.7346 973.739 60.1227 972.32 59.263C970.902 58.4033 969.225 57.9734 967.291 57.9734C964.54 57.9734 962.112 58.8546 960.005 60.617C957.899 62.3364 956.287 64.3782 955.17 66.7424V113.425H935.053Z" fill="#19306F"/>
<path d="M1042.66 114.65C1035.26 114.65 1029.07 113.124 1024.09 110.072C1019.15 106.977 1015.41 102.678 1012.87 97.1762C1010.38 91.6311 1009.13 85.2047 1009.13 77.8972C1009.13 70.4177 1010.42 63.9699 1013 58.5537C1015.62 53.1375 1019.4 48.9894 1024.35 46.1094C1029.33 43.1864 1035.33 41.7248 1042.34 41.7248C1049.21 41.7248 1054.91 42.907 1059.42 45.2712C1063.94 47.6354 1067.27 50.8808 1069.42 55.0074C1071.57 59.091 1072.51 63.7335 1072.25 68.9347H1052.85C1052.76 66.9574 1052.48 65.2594 1052.01 63.8409C1051.53 62.3794 1050.85 61.1973 1049.94 60.2946C1049.08 59.3489 1048.01 58.6612 1046.72 58.2313C1045.47 57.7585 1044.01 57.522 1042.34 57.522C1037.82 57.522 1034.47 59.177 1032.28 62.4869C1030.08 65.7538 1028.99 70.7831 1028.99 77.5748C1028.99 84.9683 1030.21 90.277 1032.66 93.501C1035.11 96.6819 1038.57 98.3798 1043.04 98.5947C1044.81 98.6807 1046.48 98.4013 1048.07 97.7565C1049.66 97.1117 1050.95 96.0371 1051.94 94.5326C1052.93 92.9851 1053.4 90.9648 1053.36 88.4716H1072.51C1072.64 93.6729 1071.54 98.2509 1069.22 102.206C1066.9 106.117 1063.48 109.169 1058.97 111.361C1054.5 113.554 1049.06 114.65 1042.66 114.65Z" fill="#19306F"/>
<path d="M1083.84 113.425V12.7741H1103.38V43.0789L1102.28 63.1317L1102.93 68.8057L1102.22 64.2278C1102.73 60.3591 1103.79 56.7053 1105.38 53.2665C1106.97 49.7846 1109.29 46.9691 1112.34 44.8198C1115.44 42.6705 1119.48 41.5959 1124.46 41.5959C1130.82 41.5959 1135.94 43.6807 1139.81 47.8503C1143.72 51.9769 1145.68 58.2958 1145.68 66.8069V113.425H1125.56V74.2864C1125.56 68.3974 1124.83 64.2063 1123.37 61.7131C1121.91 59.22 1119.43 57.9734 1115.95 57.9734C1113.46 57.9734 1111.16 58.8116 1109.05 60.488C1106.95 62.1215 1105.25 64.2708 1103.96 66.9359V113.425H1083.84Z" fill="#19306F"/>
<path d="M1167.72 43.9866V18.0464C1167.72 17.0544 1167.9 16.3353 1168.26 15.8889C1168.63 15.4425 1169.18 15.1614 1169.93 15.0457H1158.82V7.92828H1184.46V15.0457H1175.6V43.9866H1167.72Z" fill="#19306F"/>
<path d="M1188.82 43.9866V7.92828H1201.92L1206.48 27.9166L1207.74 34.0916H1207.84L1209.13 27.9166L1213.62 7.92828H1226.76V43.9866H1219.05V25.759L1219.82 14.1033H1219.57L1216.22 25.6846L1211.02 43.9866H1204.64L1196.01 14.1033H1195.77L1196.53 25.759V43.9866H1188.82Z" fill="#19306F"/>
<path d="M616.738 103.36C611.009 103.019 605.27 101.373 599.962 98.3086C597.321 96.7837 594.93 94.9908 592.806 92.9827C590.958 91.5351 589.439 89.7909 588.278 87.8579C586.235 85.0756 584.594 82.0437 583.382 78.8561C582.976 77.7971 582.619 76.7181 582.312 75.6238C582.211 75.2731 582.116 74.918 582.029 74.5628C582.023 74.5382 582.016 74.513 582.01 74.4895C581.966 74.3178 581.924 74.1456 581.885 73.9743C581.716 73.2624 581.569 72.5453 581.445 71.8261C581.437 71.7867 581.432 71.7485 581.425 71.7108C581.393 71.5369 581.364 71.3638 581.338 71.1902C581.277 70.8153 581.224 70.4414 581.177 70.0655C581.152 69.8849 581.13 69.7051 581.111 69.5248C581.108 69.4927 581.105 69.4618 581.101 69.4291C581.081 69.2635 581.063 69.0981 581.05 68.9347C581.03 68.7467 581.014 68.5589 580.997 68.3693C580.981 68.1804 580.967 67.9898 580.955 67.7999C580.941 67.6105 580.93 67.4213 580.921 67.2315C580.909 67.0423 580.901 66.8514 580.894 66.6619C580.886 66.4728 580.881 66.2821 580.877 66.0927C580.867 65.7109 580.864 65.3312 580.868 64.9507C580.87 64.3791 580.888 63.8074 580.918 63.2352C580.927 63.0442 580.938 62.8539 580.951 62.6632C580.963 62.4889 580.976 62.3165 580.99 62.1447C581.002 61.9906 581.016 61.8371 581.03 61.6837C581.039 61.5849 581.049 61.4856 581.058 61.3874C581.074 61.2412 581.089 61.0931 581.106 60.9457C581.148 60.5646 581.197 60.1833 581.252 59.8035C581.306 59.422 581.367 59.0425 581.434 58.6623C581.5 58.2814 581.572 57.9027 581.651 57.5232C581.693 57.3236 581.736 57.1228 581.781 56.9233C581.815 56.7693 581.85 56.6141 581.887 56.4592C581.899 56.4067 581.913 56.3549 581.926 56.303C581.951 56.194 581.977 56.0844 582.006 55.9774C582.023 55.9022 582.042 55.8265 582.062 55.7526C582.093 55.6303 582.125 55.5087 582.158 55.3859C582.178 55.312 582.198 55.2382 582.219 55.1638C582.261 55.0067 582.306 54.8509 582.35 54.694C582.459 54.3192 582.573 53.9448 582.693 53.5707C582.753 53.3846 582.815 53.1979 582.878 53.012C583.672 50.6732 584.705 48.3778 585.987 46.1576C586.468 45.3246 586.975 44.5162 587.508 43.7342C581.005 46.9589 575.348 52.0724 571.446 58.8313C560.905 77.0887 567.163 100.436 585.422 110.979C587.757 112.327 590.176 113.4 592.641 114.209C594.37 114.778 596.123 115.216 597.886 115.525C598.003 115.547 598.121 115.567 598.238 115.585C598.406 115.614 598.572 115.641 598.74 115.666C598.913 115.693 599.086 115.719 599.26 115.741C599.296 115.747 599.33 115.751 599.365 115.756C611.745 117.435 624.423 112.924 632.935 103.416C633.877 102.236 634.766 100.982 635.6 99.6531C629.758 102.459 623.254 103.752 616.738 103.36Z" fill="url(#paint0_linear_332_994)"/>
<path d="M635.709 99.9999C629.855 102.814 623.34 104.115 616.814 103.726C611.076 103.388 605.329 101.742 600.012 98.6723C597.368 97.1455 594.975 95.3498 592.848 93.3383C593.546 93.8847 594.289 94.3888 595.079 94.8446C604.143 100.078 615.739 96.9631 620.979 87.887C622.834 84.6745 623.643 81.1456 623.514 77.6964C623.411 74.9759 622.725 72.3054 621.506 69.8757C619.904 66.679 617.381 63.8997 614.054 61.9784C604.988 56.7445 593.392 59.8593 588.153 68.9342C584.579 75.1232 584.885 82.4871 588.316 88.2043C581.045 78.2902 578.868 65.2278 582.925 53.2846C583.722 50.9399 584.758 48.6386 586.043 46.4125C586.525 45.5773 587.034 44.7668 587.568 43.9827C598.656 38.4741 612.198 38.4397 623.715 45.0887C633.013 50.4574 639.201 59.1456 641.646 68.7973C642.805 73.3726 643.124 78.1638 642.535 82.9212C641.751 86.4161 640.707 89.7343 639.393 92.88C638.307 95.4445 637.081 97.8204 635.709 99.9999Z" fill="url(#paint1_linear_332_994)"/>
<path d="M639.367 92.6504C638.278 95.2157 637.05 97.5933 635.678 99.7753C635.676 99.78 635.672 99.784 635.669 99.7887C634.832 101.122 633.941 102.381 632.997 103.567C631.911 104.933 630.753 106.202 629.525 107.371C621.614 114.872 611.584 117.758 599.446 116.061C599.411 116.056 599.374 116.051 599.339 116.046C599.165 116.024 598.993 115.999 598.82 115.973C598.652 115.948 598.487 115.922 598.319 115.894C598.203 115.875 598.085 115.856 597.968 115.835C597.918 115.826 597.868 115.817 597.818 115.808C596.852 115.638 596.977 114.128 597.948 113.988C601.786 113.4 604.781 112.615 606.93 111.632C610.718 109.927 614.03 107.239 616.827 103.575C616.828 103.574 616.829 103.572 616.831 103.571C616.832 103.57 616.834 103.569 616.835 103.568C618.102 101.911 619.264 100.049 620.318 97.993C621.146 96.3928 621.824 94.8025 622.374 93.1853C624.19 87.9208 624.582 82.7201 623.59 77.5145C623.563 77.3659 623.402 77.2827 623.264 77.3433L616.884 80.136C616.053 80.4993 615.257 79.564 615.748 78.8023L624.232 65.6383L629.279 57.8576C629.594 57.3713 630.277 57.2972 630.689 57.7044L640.975 67.8595L647.037 73.8055C647.706 74.4615 647.074 75.5795 646.167 75.3442L644.877 75.0095C644.338 74.8696 643.8 75.2398 643.731 75.7924C643.433 78.16 643.033 80.4551 642.529 82.6808C641.737 86.1785 640.686 89.5003 639.367 92.6504Z" fill="url(#paint2_linear_332_994)"/>
<path d="M9.20454 113V21.076H41.2578C48.2543 21.076 54.0075 22.0243 58.5173 23.921C63.0692 25.8176 66.441 28.4518 68.6327 31.8237C70.8665 35.1955 71.9834 39.1152 71.9834 43.5828C71.9834 49.2728 70.3186 53.8247 66.9889 57.2387C63.7014 60.6526 59.4234 62.5914 54.155 63.0551C58.7912 63.5187 62.6688 64.6356 65.7877 66.4058C68.9488 68.176 71.3302 70.5995 72.9318 73.6763C74.5755 76.7109 75.3974 80.462 75.3974 84.9297C75.3974 90.8303 74.0697 95.8881 71.4145 100.103C68.7591 104.275 64.9026 107.479 59.8449 109.712C54.8294 111.904 48.739 113 41.5739 113H9.20454ZM28.9296 96.3095H40.4359C45.4515 96.3095 49.0341 95.4034 51.1836 93.591C53.3331 91.7787 54.4079 88.7019 54.4079 84.3607C54.4079 80.9889 53.8178 78.4811 52.6377 76.8373C51.4997 75.1936 49.8349 74.0977 47.6432 73.5498C45.4515 73.0019 42.7751 72.7279 39.6141 72.7279H28.9296V96.3095ZM28.9296 58.4399H39.8669C42.5222 58.4399 44.7139 58.0184 46.442 57.1755C48.2122 56.3325 49.5188 55.0892 50.3617 53.4454C51.2468 51.8016 51.6894 49.7785 51.6894 47.3761C51.6894 43.9622 50.5935 41.4965 48.4018 39.9792C46.2102 38.4198 43.1966 37.64 39.3612 37.64H28.9296V58.4399ZM117.672 113.948C110.97 113.948 105.154 112.579 100.223 109.839C95.2914 107.099 91.456 103.074 88.7164 97.7636C86.0189 92.4109 84.6702 85.8569 84.6702 78.1018C84.6702 70.7681 86.1032 64.4459 88.9693 59.1353C91.8353 53.8247 95.7761 49.7575 100.792 46.9336C105.807 44.0675 111.518 42.6345 117.925 42.6345C124.837 42.6345 130.738 44.0675 135.627 46.9336C140.558 49.7575 144.33 53.8247 146.943 59.1353C149.599 64.4459 150.926 70.7681 150.926 78.1018C150.926 85.8569 149.472 92.4109 146.564 97.7636C143.656 103.074 139.694 107.099 134.678 109.839C129.663 112.579 123.994 113.948 117.672 113.948ZM117.925 97.7004C121.76 97.7004 124.963 96.2885 127.534 93.4646C130.105 90.5985 131.391 85.4776 131.391 78.1018C131.391 71.2317 130.042 66.3215 127.345 63.3712C124.689 60.3787 121.486 58.8824 117.735 58.8824C113.9 58.8824 110.696 60.3787 108.125 63.3712C105.554 66.3215 104.269 71.2317 104.269 78.1018C104.269 85.1826 105.618 90.2192 108.315 93.2117C111.012 96.2042 114.216 97.7004 117.925 97.7004ZM163.364 113V14.2481H183.089V113H163.364ZM221.731 113.822C216.336 113.822 211.7 112.368 207.823 109.46C203.945 106.509 200.974 102.358 198.908 97.005C196.885 91.6522 195.874 85.3722 195.874 78.165C195.874 70.7049 197.012 64.3406 199.288 59.0721C201.564 53.7615 204.746 49.7153 208.834 46.9336C212.922 44.1097 217.643 42.6977 222.996 42.6977C226.452 42.6977 229.423 43.2878 231.91 44.4679C234.439 45.6481 236.483 47.2286 238.042 49.2096C239.602 51.1905 240.635 53.3611 241.14 55.7214L243.416 62.17L240.318 66.6587C239.897 65.0571 239.18 63.6873 238.169 62.5493C237.2 61.3691 235.935 60.463 234.376 59.8308C232.858 59.1985 231.046 58.8824 228.939 58.8824C224.682 58.8824 221.373 60.5051 219.013 63.7505C216.695 66.9537 215.536 71.885 215.536 78.5443C215.536 84.9086 216.653 89.6924 218.886 92.8956C221.162 96.0988 224.45 97.7004 228.749 97.7004C230.814 97.7004 232.669 97.4054 234.312 96.8153C235.998 96.1831 237.368 95.4244 238.422 94.5393C239.475 93.6121 240.108 92.7059 240.318 91.8208L241.077 92.6427L240.318 96.8153C239.728 99.3442 238.928 101.662 237.916 103.77C236.904 105.835 235.661 107.626 234.186 109.143C232.711 110.619 230.941 111.778 228.875 112.621C226.852 113.421 224.471 113.822 221.731 113.822ZM240.382 113L240.318 14.6274H259.917V113H240.382Z" fill="#19306F"/>
<defs>
<linearGradient id="paint0_linear_332_994" x1="274.776" y1="23.5854" x2="334.994" y2="265.569" gradientUnits="userSpaceOnUse">
<stop stop-color="#003BDF"/>
<stop offset="0.2" stop-color="#003BDF"/>
<stop offset="0.485" stop-color="#06E5EC"/>
<stop offset="0.78" stop-color="#589CEF"/>
<stop offset="0.955" stop-color="#003BDF"/>
</linearGradient>
<linearGradient id="paint1_linear_332_994" x1="1224.68" y1="76.3205" x2="949.539" y2="500.074" gradientUnits="userSpaceOnUse">
<stop stop-color="#001654"/>
<stop offset="0.43" stop-color="#003BDF"/>
<stop offset="0.93" stop-color="#06E5EC"/>
</linearGradient>
<linearGradient id="paint2_linear_332_994" x1="639.956" y1="62.7273" x2="629.244" y2="129.289" gradientUnits="userSpaceOnUse">
<stop stop-color="#06E5EC"/>
<stop offset="0.34" stop-color="#10D1E7"/>
<stop offset="0.7" stop-color="#0092DB"/>
<stop offset="1" stop-color="#006BE6"/>
</linearGradient>
</defs>
</svg>
