<svg width="20" height="16" viewBox="0 0 20 16" fill="none" xmlns="http://www.w3.org/2000/svg">
<path d="M9.54 1.092C8.88775 0.387799 7.97674 0 6.97121 0C5.96032 0 5.0463 0.385452 4.39706 1.0853C3.74079 1.79286 3.42103 2.75448 3.49611 3.79285C3.64493 5.84145 5.20383 7.50794 6.97121 7.50794C8.7386 7.50794 10.2948 5.84178 10.446 3.79352C10.5221 2.76453 10.2003 1.80492 9.54 1.092Z" fill="#F9FAFF"/>
<path d="M16.5259 2.86147C16.0114 2.30593 15.2927 2 14.4995 2C13.702 2 12.9809 2.30408 12.4687 2.85618C11.951 3.41436 11.6988 4.17297 11.758 4.99213C11.8754 6.60824 13.1052 7.92292 14.4995 7.92292C15.8937 7.92292 17.1214 6.6085 17.2407 4.99266C17.3007 4.1809 17.0468 3.42388 16.5259 2.86147Z" fill="#F9FAFF"/>
<path d="M6.97119 8.5791C8.01464 8.5791 9.04021 8.77253 9.96924 9.13281C9.7726 9.27125 9.58219 9.42106 9.3999 9.58301C8.10619 10.7334 7.28279 12.3724 7.01904 14.3232C6.98682 14.5608 6.99544 14.7969 7.04053 15.0146H1.07275C0.918326 15.0167 0.764824 14.9845 0.624512 14.9199C0.48425 14.8554 0.36018 14.7601 0.26123 14.6416C0.0434623 14.3812 -0.044015 14.0256 0.0209961 13.666C0.303924 12.0969 1.18632 10.7789 2.57373 9.85352C3.80646 9.03203 5.36812 8.57914 6.97119 8.5791Z" fill="#F9FAFF"/>
<path d="M19.1532 13.8449H9.84579C9.72397 13.8464 9.60332 13.8208 9.49263 13.7699C9.38194 13.719 9.28399 13.6441 9.20591 13.5506C9.03404 13.3451 8.96476 13.0646 9.01606 12.7808C9.23922 11.5428 9.93569 10.5029 11.0304 9.77285C12.0029 9.12476 13.2348 8.76807 14.4995 8.76807C15.7642 8.76807 16.9961 9.12503 17.9686 9.77285C19.0633 10.5026 19.7598 11.5426 19.983 12.7806C20.0343 13.0643 19.965 13.3448 19.7931 13.5503C19.7151 13.6439 19.6171 13.7189 19.5064 13.7698C19.3957 13.8208 19.2751 13.8464 19.1532 13.8449Z" fill="#F9FAFF"/>
</svg>
