<svg width="18" height="18" viewBox="0 0 18 18" fill="none" xmlns="http://www.w3.org/2000/svg">
<path d="M11.7298 2.54122C11.0776 1.83702 10.1666 1.44922 9.16103 1.44922C8.15014 1.44922 7.23612 1.83467 6.58688 2.53452C5.93061 3.24208 5.61085 4.2037 5.68593 5.24207C5.83475 7.29067 7.39365 8.95716 9.16103 8.95716C10.9284 8.95716 12.4846 7.291 12.6358 5.24274C12.7119 4.21375 12.3901 3.25414 11.7298 2.54122Z" fill="#F9FAFF"/>
<path d="M15.0602 16.4642H3.26196C3.10754 16.4662 2.9546 16.4338 2.81429 16.3692C2.67398 16.3047 2.54982 16.2097 2.45084 16.0911C2.23297 15.8307 2.14516 15.4751 2.21018 15.1154C2.49307 13.5461 3.37592 12.2279 4.76355 11.3025C5.99633 10.481 7.55791 10.0288 9.16106 10.0288C10.7642 10.0288 12.3258 10.4813 13.5586 11.3025C14.9462 12.2276 15.8291 13.5458 16.1119 15.1151C16.177 15.4747 16.0891 15.8304 15.8713 16.0908C15.7723 16.2094 15.6482 16.3045 15.5079 16.3691C15.3676 16.4337 15.2146 16.4662 15.0602 16.4642Z" fill="#F9FAFF"/>
</svg>
