<svg width="18" height="18" viewBox="0 0 18 18" fill="none" xmlns="http://www.w3.org/2000/svg">
<g clip-path="url(#clip0_121_230)">
<path d="M9.34738 3.56901C9.29748 3.52127 9.23108 3.49463 9.16203 3.49463C9.09297 3.49463 9.02658 3.52127 8.97667 3.56901L2.80608 9.46375C2.77988 9.48881 2.75903 9.51894 2.7448 9.55229C2.73057 9.58565 2.72325 9.62155 2.7233 9.65781L2.72229 15.1902C2.72229 15.4747 2.83529 15.7475 3.03644 15.9486C3.23758 16.1498 3.51039 16.2628 3.79485 16.2628H7.01589C7.15813 16.2628 7.29453 16.2063 7.3951 16.1057C7.49567 16.0051 7.55218 15.8687 7.55218 15.7265V11.1681C7.55218 11.097 7.58043 11.0288 7.63071 10.9785C7.681 10.9282 7.7492 10.9 7.82032 10.9H10.5017C10.5728 10.9 10.641 10.9282 10.6913 10.9785C10.7416 11.0288 10.7699 11.097 10.7699 11.1681V15.7265C10.7699 15.8687 10.8264 16.0051 10.9269 16.1057C11.0275 16.2063 11.1639 16.2628 11.3061 16.2628H14.5258C14.8103 16.2628 15.0831 16.1498 15.2843 15.9486C15.4854 15.7475 15.5984 15.4747 15.5984 15.1902V9.65781C15.5985 9.62155 15.5911 9.58565 15.5769 9.55229C15.5627 9.51894 15.5418 9.48881 15.5156 9.46375L9.34738 3.56901Z" fill="#F9FAFF"/>
<path d="M17.0352 8.35832L14.528 5.9598V2.32012C14.528 2.17789 14.4715 2.04149 14.371 1.94091C14.2704 1.84034 14.134 1.78384 13.9918 1.78384H12.3829C12.2407 1.78384 12.1043 1.84034 12.0037 1.94091C11.9031 2.04149 11.8466 2.17789 11.8466 2.32012V3.39269L9.9053 1.53648C9.72364 1.3528 9.45348 1.24756 9.16155 1.24756C8.87061 1.24756 8.60113 1.3528 8.41947 1.53682L1.29027 8.35765C1.08179 8.55875 1.05565 8.88957 1.24536 9.10744C1.293 9.16243 1.35133 9.20715 1.4168 9.23889C1.48227 9.27062 1.55352 9.2887 1.6262 9.29202C1.69888 9.29534 1.77148 9.28384 1.83957 9.25822C1.90767 9.23259 1.96984 9.19338 2.0223 9.14297L8.9772 2.49709C9.0271 2.44936 9.09349 2.42272 9.16255 2.42272C9.23161 2.42272 9.298 2.44936 9.3479 2.49709L16.3035 9.14297C16.4059 9.24122 16.5432 9.29485 16.6851 9.29208C16.827 9.28932 16.9621 9.23039 17.0606 9.12822C17.2664 8.91505 17.2493 8.56311 17.0352 8.35832Z" fill="#F9FAFF"/>
</g>
<defs>
<clipPath id="clip0_121_230">
<rect width="17.161" height="17.161" fill="white" transform="translate(0.580566 0.173828)"/>
</clipPath>
</defs>
</svg>
