<svg width="13" height="19" viewBox="0 0 13 19" fill="none" xmlns="http://www.w3.org/2000/svg">
<path d="M1.97851 5.94287H10.9281C13.4786 11.213 13.8948 13.3185 10.9281 17.9524H6.45331H1.97851C-1.21138 12.5526 -0.0437902 10.6501 1.97851 5.94287Z" fill="#F9FAFF"/>
<circle cx="6.45354" cy="4.70476" r="4.70476" fill="#F9FAFF"/>
<rect x="2.61548" y="2.35205" width="7.55238" height="4.08571" rx="1.60952" fill="#1A1F37"/>
<rect x="4.2251" y="3.59082" width="1.34852" height="1.55598" rx="0.622394" stroke="#F9FAFF" stroke-width="0.311197"/>
<rect x="7.30688" y="3.59082" width="1.34852" height="1.55598" rx="0.622394" stroke="#F9FAFF" stroke-width="0.311197"/>
<path d="M1.43572 16.82C1.19063 15.2552 2.52275 13.8964 4.09206 14.1104L9.6351 14.8663C10.8099 15.0265 11.5833 16.1738 11.2912 17.3229C11.0674 18.2031 10.275 18.8192 9.36682 18.8192H3.77249C2.6075 18.8192 1.61599 17.9709 1.43572 16.82Z" fill="#F9FAFF"/>
</svg>
